<svg fill="{{COLOR}}" xmlns="http://www.w3.org/2000/svg" xmlns:xlink="http://www.w3.org/1999/xlink" version="1.1" x="0px" y="0px" viewBox="0 0 100 100" style="enable-background:new 0 0 100 100;" xml:space="preserve"><title>Artboard 14</title><g><path d="M63.3,43.4c-0.4-0.4-1-0.4-1.4,0L56.3,49c-0.9-0.6-1.8-0.9-2.9-0.9c-1.4,0-2.7,0.6-3.7,1.6c-1,1-1.6,2.3-1.6,3.7   s0.6,2.7,1.6,3.7s2.3,1.6,3.7,1.6s2.7-0.6,3.7-1.6s1.6-2.3,1.6-3.7c0-1.1-0.3-2.2-1-3l5.5-5.5C63.7,44.4,63.7,43.8,63.3,43.4z    M55.8,55.7c-1.2,1.2-3.4,1.2-4.7,0c-0.6-0.6-1-1.5-1-2.3c0-0.9,0.3-1.7,1-2.3c1.2-1.2,3.4-1.2,4.7,0c0.6,0.6,1,1.5,1,2.3   C56.7,54.3,56.4,55.1,55.8,55.7z"/><path d="M25.1,52.5c0,0.6,0.4,1,1,1h17.3c0.6,0,1-0.4,1-1s-0.4-1-1-1H26.1C25.5,51.5,25.1,51.9,25.1,52.5z"/><path d="M21.9,45.1h17.3c0.6,0,1-0.4,1-1s-0.4-1-1-1H21.9c-0.6,0-1,0.4-1,1S21.3,45.1,21.9,45.1z"/><path d="M40.2,60.9c0-0.6-0.4-1-1-1H21.9c-0.6,0-1,0.4-1,1s0.4,1,1,1h17.3C39.8,61.9,40.2,61.5,40.2,60.9z"/><path d="M71.8,35.4l1-1c0.5,0.3,1,0.4,1.6,0.4c1.9,0,3.4-1.5,3.4-3.4S76.4,28,74.5,28s-3.4,1.5-3.4,3.4c0,0.5,0.1,1.1,0.4,1.5   L70.4,34c-4.2-3.7-9.6-6-15.6-6.2v-4.2h3.6c0.6,0,1-0.4,1-1s-0.4-1-1-1h-9.1c-0.6,0-1,0.4-1,1s0.4,1,1,1h3.5v4.2   c-6.6,0.3-12.7,3-17.3,7.9c-0.4,0.4-0.4,1,0,1.4c0.4,0.4,1,0.4,1.4,0c4.5-4.7,10.5-7.3,16.9-7.3c6.1,0,11.7,2.4,15.9,6.3   c0,0,0,0,0,0c0,0,0,0,0,0c4.5,4.2,7.3,10.2,7.3,16.8c0,12.8-10.4,23.2-23.2,23.2c-6.2,0-12-2.4-16.4-6.8c-0.4-0.4-1-0.4-1.4,0   s-0.4,1,0,1.4c4.8,4.8,11.1,7.4,17.8,7.4C67.7,78.1,79,66.8,79,52.9C79,46.1,76.3,39.9,71.8,35.4z M74.5,30c0.8,0,1.4,0.6,1.4,1.4   s-0.6,1.4-1.4,1.4c-0.3,0-0.6-0.1-0.9-0.3c0-0.1-0.1-0.1-0.1-0.2c0,0-0.1-0.1-0.2-0.1c-0.2-0.2-0.2-0.5-0.2-0.8   C73.1,30.6,73.7,30,74.5,30z"/><path d="M41.7,68.9c-0.3,0.5-0.2,1.1,0.3,1.4c3.5,2.4,7.6,3.7,11.9,3.7c11.6,0,21-9.4,21-21c0-11.6-9.4-21-21-21   c-4.4,0-8.7,1.4-12.3,4c-0.4,0.3-0.5,1-0.2,1.4c0.3,0.4,0.9,0.5,1.4,0.2c3.2-2.4,7.1-3.6,11.1-3.6c10.5,0,19,8.5,19,19   s-8.5,19-19,19c-3.9,0-7.6-1.1-10.7-3.3C42.6,68.4,42,68.5,41.7,68.9z"/></g></svg>